<svg width="85" height="118" viewBox="0 0 85 118" fill="none" xmlns="http://www.w3.org/2000/svg">
<rect width="85" height="118" fill="black"/>
<path d="M8.32336 38.4749L16.928 34.1847C21.4346 31.9378 23.5292 32.9851 23.5292 38.1235V57.2225C23.5292 62.0421 21.8899 65.5426 16.928 68.0171L8.32336 72.3074V38.4749ZM14.3781 63.6501L15.562 63.0595C16.928 62.3779 17.3379 61.4473 17.3379 59.8095V41.6211C17.3379 39.9847 16.8825 39.5749 15.7441 40.1412L14.3781 40.8228V63.6501Z" fill="white"/>
<path d="M30.5615 61.2026L24.9778 63.9916L30.0336 27.6505L37.2267 24.0646L41.6478 55.6929L36.6091 58.1973L35.9432 52.8526L31.2701 55.1664L30.5615 61.2026ZM33.7418 34.6116L32.0044 49.049L35.2815 47.4325L33.7418 34.6116Z" fill="white"/>
<path d="M39.9075 22.7284L45.3703 20.0048L47.4194 30.9887L49.4684 17.9615L55.5232 14.9433L50.5143 38.1761V51.2731L44.4596 54.2926V40.9694L39.9075 22.7284Z" fill="white"/>
<path d="M14.3781 107.291L8.32336 110.309V76.4767L17.8843 71.7098C21.5712 69.8713 23.4381 70.9869 23.4381 74.5799V79.9914C23.4381 82.7193 21.8899 84.8566 20.7516 85.8782C21.7533 85.7431 23.347 86.039 23.347 88.5862V100.091C23.347 101.547 23.6203 102.046 23.8479 102.342V102.57L17.7932 105.589C17.52 105.362 17.2468 104.77 17.2468 103.27V93.4015C17.2468 91.8547 16.8825 91.5815 15.6531 92.1948L14.3781 92.8309V107.291ZM14.3781 87.2372L15.562 86.6466C16.7459 86.0561 17.2468 85.3517 17.2468 83.7609V79.1675C17.2468 77.7118 16.9736 77.3945 15.7441 78.0064L14.3781 78.688V87.2372Z" fill="white"/>
<path d="M41.5838 85.9964C41.5838 90.9526 38.9428 95.543 34.3907 97.8127L33.0246 98.4943C28.2449 100.878 25.6949 99.193 25.6949 93.918V76.047C25.6949 70.8176 27.744 66.385 32.9791 63.7753L34.3452 63.0937C39.6713 60.4384 41.5838 62.8945 41.5838 68.0798V85.9964ZM35.2559 70.7791C35.2559 69.2779 34.755 68.8012 33.6621 69.3448C32.4782 69.9353 32.0229 70.8901 32.0229 72.3899V90.944C32.0229 91.9899 32.4327 92.7412 33.7077 92.1052C34.9371 91.4919 35.2559 90.3791 35.2559 89.3332V70.7791Z" fill="white"/>
<path d="M52.2447 54.1688C56.9789 51.8081 58.7547 53.1059 58.7547 57.5626V62.1104L52.9277 65.0161V60.7871C52.9277 59.6956 52.7 59.1279 51.6072 59.6715C50.5599 60.1937 50.2867 61.0119 50.2867 62.1488V62.9215C50.2867 64.5124 50.6509 65.4231 52.1536 66.3565L55.6128 68.4967C58.6637 70.3864 59.3011 72.4781 59.3011 75.344V76.9349C59.3011 81.9821 56.9333 86.483 51.9259 88.9789L50.742 89.5694C46.1444 91.8618 43.8221 90.564 43.8221 86.0162V79.9231L49.7858 76.9491V82.3606C49.7858 83.7253 50.2411 84.1806 51.334 83.6356C52.3813 83.1134 52.8366 82.0675 52.8366 80.4311V79.7936C52.8366 77.4286 52.6545 76.5649 50.8786 75.4948L47.3738 73.3775C44.8694 71.8976 44.1409 69.5781 44.1409 66.395V64.9393C44.1409 60.6192 46.7819 56.8924 51.0152 54.7821L52.2447 54.1688Z" fill="white"/>
<path d="M69.5166 45.5585C74.2508 43.1978 76.0267 44.4955 76.0267 48.9523V53.5001L70.1997 56.4058V52.1753C70.1997 51.0839 69.972 50.5161 68.8791 51.0597C67.8318 51.5819 67.5586 52.4001 67.5586 53.5371V54.3097C67.5586 55.9006 67.9229 56.8113 69.4256 57.7448L72.8848 59.8849C75.9356 61.7746 76.5731 63.8664 76.5731 66.7322V68.3231C76.5731 73.3704 74.2053 77.8712 69.1979 80.3671L68.014 80.9576C63.4164 83.25 61.0941 81.9523 61.0941 77.4045V71.3113L67.0577 68.3373V73.7489C67.0577 75.1135 67.5131 75.5689 68.6059 75.0239C69.6532 74.5016 70.1086 73.4557 70.1086 71.8193V71.1818C70.1086 68.8169 69.9264 67.9531 68.1506 66.8831L64.6458 64.7657C62.1414 63.2858 61.4128 60.9664 61.4128 57.7832V56.3275C61.4128 52.0074 64.0539 48.2806 68.2872 46.1704L69.5166 45.5585Z" fill="white"/>
<path d="M74.534 34.0211C75.9442 29.7749 76.4721 25.2086 76.6073 19.2122L71.533 21.7423C71.5458 24.5057 71.5742 27.4455 71.2569 30.1079L67.5245 23.7842C71.2128 18.8992 72.1221 16.6253 72.1221 12.9427V12.3521C72.1221 8.71359 70.8471 6.89362 66.4772 9.0736L65.4754 9.57307C60.7867 11.911 59.6483 15.9337 59.6483 18.5719V19.8455C59.6483 22.801 60.2858 24.4388 61.6519 26.6686C59.0109 29.9855 57.282 33.3494 57.282 37.4419V39.0783C57.282 45.1259 60.5149 46.7893 66.0232 44.043L66.6152 43.7485C68.8464 42.6357 70.3021 41.2284 71.2128 39.9548C72.4422 40.3874 73.9449 40.0929 76.0381 39.3671L76.0409 34.0694C75.5159 34.1605 75.0249 34.1634 74.534 34.0211ZM64.8379 16.3009C64.8379 14.8452 65.1111 14.2091 66.0218 13.7552C66.9325 13.3012 67.1602 13.6428 67.1602 15.1426V15.8242C67.1602 18.007 66.9781 19.0529 65.9307 21.0294C65.0656 19.5054 64.8379 18.7099 64.8379 17.0266V16.3009ZM66.9766 38.5632C64.5177 39.7883 62.971 38.741 62.971 34.6486V33.4661C62.971 32.0104 63.2442 30.7383 63.5629 29.7152L68.5704 37.4504C68.115 37.9043 67.5686 38.2672 66.9766 38.5632Z" fill="#FF6319"/>
</svg>
