<svg width="87" height="121" viewBox="0 0 87 121" fill="none" xmlns="http://www.w3.org/2000/svg">
<rect width="87" height="121" fill="white"/>
<path d="M7.97369 39.3371L16.9322 34.9025C21.624 32.58 23.8048 33.6625 23.8048 38.9738V58.7155C23.8048 63.6973 22.0981 67.3156 16.9322 69.8734L7.97369 74.308V39.3371ZM14.2774 65.3594L15.51 64.749C16.9322 64.0444 17.3589 63.0825 17.3589 61.3895V42.5891C17.3589 40.8976 16.8848 40.474 15.6996 41.0594L14.2774 41.764V65.3594Z" fill="black"/>
<path d="M31.1262 62.8295L25.3129 65.7123L30.5766 28.1483L38.0655 24.4418L42.6684 57.1343L37.4225 59.723L36.7292 54.1985L31.864 56.5901L31.1262 62.8295ZM34.4373 35.3437L32.6284 50.2669L36.0403 48.5961L34.4373 35.3437Z" fill="black"/>
<path d="M40.8566 23.0606L46.544 20.2454L48.6773 31.5989L50.8106 18.1333L57.1143 15.0136L51.8995 39.0282V52.5659L45.5958 55.687V41.9155L40.8566 23.0606Z" fill="black"/>
<path d="M14.2774 110.469L7.97369 113.588V78.6176L17.9277 73.6902C21.7663 71.7899 23.71 72.943 23.71 76.6569V82.2506C23.71 85.0702 22.0981 87.2794 20.9129 88.3355C21.9559 88.1957 23.6151 88.5017 23.6151 91.1345V103.026C23.6151 104.531 23.8996 105.047 24.1366 105.353V105.589L17.8329 108.71C17.5485 108.474 17.264 107.862 17.264 106.312V96.1119C17.264 94.513 16.8848 94.2306 15.6048 94.8646L14.2774 95.5221V110.469ZM14.2774 89.7401L15.51 89.1297C16.7426 88.5193 17.264 87.7913 17.264 86.1469V81.399C17.264 79.8943 16.9796 79.5663 15.6996 80.1987L14.2774 80.9033V89.7401Z" fill="black"/>
<path d="M42.6018 88.4576C42.6018 93.5805 39.8521 98.3255 35.1129 100.672L33.6907 101.376C28.7144 103.84 26.0596 102.098 26.0596 96.6458V78.1734C26.0596 72.768 28.1929 68.1863 33.6433 65.4888L35.0655 64.7842C40.6107 62.0396 42.6018 64.5783 42.6018 69.9381V88.4576ZM36.0136 72.7283C36.0136 71.1765 35.4922 70.6838 34.3544 71.2457C33.1218 71.8561 32.6477 72.843 32.6477 74.3933V93.5717C32.6477 94.6528 33.0744 95.4294 34.4018 94.7719C35.6818 94.138 36.0136 92.9878 36.0136 91.9067V72.7283Z" fill="black"/>
<path d="M53.701 55.5591C58.6299 53.1189 60.4788 54.4603 60.4788 59.067V63.7679L54.4121 66.7714V62.4C54.4121 61.2718 54.1751 60.685 53.0373 61.2468C51.9469 61.7866 51.6625 62.6324 51.6625 63.8076V64.6063C51.6625 66.2507 52.0417 67.192 53.6062 68.1569L57.2077 70.3691C60.3839 72.3223 61.0476 74.4845 61.0476 77.4468V79.0912C61.0476 84.3083 58.5825 88.9606 53.3691 91.5405L52.1366 92.1509C47.3499 94.5204 44.9321 93.179 44.9321 88.4782V82.18L51.141 79.1059V84.6995C51.141 86.1101 51.6151 86.5808 52.7529 86.0174C53.8432 85.4776 54.3173 84.3965 54.3173 82.7051V82.0461C54.3173 79.6016 54.1277 78.7088 52.2788 77.6027L48.6299 75.4141C46.0225 73.8844 45.264 71.4869 45.264 68.1966V66.6919C45.264 62.2264 48.0136 58.3743 52.421 56.193L53.701 55.5591Z" fill="black"/>
<path d="M71.6832 46.659C76.6121 44.2188 78.4609 45.5602 78.4609 50.1669V54.8678L72.3943 57.8713V53.4984C72.3943 52.3703 72.1573 51.7834 71.0195 52.3453C69.9291 52.8851 69.6447 53.7308 69.6447 54.906V55.7047C69.6447 57.3491 70.0239 58.2904 71.5884 59.2553L75.1898 61.4675C78.3661 63.4208 79.0298 65.5829 79.0298 68.5452V70.1896C79.0298 75.4067 76.5647 80.059 71.3513 82.6389L70.1187 83.2493C65.3321 85.6188 62.9143 84.2774 62.9143 79.5766V73.2784L69.1232 70.2043V75.798C69.1232 77.2085 69.5973 77.6792 70.735 77.1158C71.8254 76.576 72.2995 75.495 72.2995 73.8035V73.1446C72.2995 70.7 72.1098 69.8072 70.261 68.7011L66.6121 66.5125C64.0047 64.9828 63.2462 62.5853 63.2462 59.295V57.7904C63.2462 53.3249 65.9958 49.4727 70.4032 47.2914L71.6832 46.659Z" fill="black"/>
<path d="M76.9069 34.7333C78.375 30.3443 78.9246 25.6243 79.0654 19.4262L73.7824 22.0413C73.7958 24.8977 73.8254 27.9365 73.495 30.6885L69.6091 24.152C73.4491 19.1026 74.3958 16.7522 74.3958 12.9456V12.3352C74.3958 8.57425 73.0684 6.69303 68.5187 8.94637L67.4758 9.46264C62.5943 11.8792 61.4091 16.0373 61.4091 18.7643V20.0807C61.4091 23.1357 62.0728 24.8286 63.4951 27.1334C60.7454 30.562 58.9454 34.0391 58.9454 38.2692V39.9607C58.9454 46.2118 62.3114 47.9312 68.0462 45.0925L68.6625 44.788C70.9854 43.6378 72.501 42.1832 73.4491 40.8667C74.7291 41.3139 76.2935 41.0094 78.4728 40.2593L78.4758 34.7833C77.9291 34.8774 77.418 34.8804 76.9069 34.7333ZM66.8121 16.4168C66.8121 14.9121 67.0965 14.2547 68.0447 13.7855C68.9928 13.3163 69.2299 13.6693 69.2299 15.2195V15.9241C69.2299 18.1804 69.0402 19.2614 67.9499 21.3044C67.0491 19.7292 66.8121 18.907 66.8121 17.1669V16.4168ZM69.0387 39.4283C66.4787 40.6947 64.8684 39.6121 64.8684 35.3819V34.1597C64.8684 32.655 65.1528 31.3401 65.4847 30.2825L70.698 38.2781C70.2239 38.7473 69.655 39.1223 69.0387 39.4283Z" fill="#FF6319"/>
</svg>
